<?xml version="1.0" encoding="utf-8"?>
<!-- Generator: Adobe Illustrator 22.0.1, SVG Export Plug-In . SVG Version: 6.00 Build 0)  -->
<svg version="1.1" id="Layer_1" xmlns="http://www.w3.org/2000/svg" xmlns:xlink="http://www.w3.org/1999/xlink" x="0px" y="0px"
	 viewBox="0 0 612 792" style="enable-background:new 0 0 612 792;" xml:space="preserve">
<style type="text/css">
	.st0{fill:#104500;}
	.st1{fill:#006C28;}
	.st2{fill:#1DB954;}
	.st3{fill:none;stroke:#231F20;stroke-width:4;stroke-miterlimit:10;}
	.st4{fill:none;stroke:#231F20;stroke-width:2;stroke-miterlimit:10;}
	.st5{fill:#231F20;}
	.st6{fill:#39B54A;}
	.st7{fill:none;stroke:#104500;stroke-width:5;stroke-miterlimit:10;}
</style>
<path class="st0" d="M169.2,212.5H167c-5.9,0-10.7-4.8-10.7-10.7v-4.9c0-5.9,4.8-10.7,10.7-10.7h2.3V212.5z"/>
<path class="st1" d="M180,220h-7.2c-4.3,0-7.8-3.5-7.8-7.8v-24.9c0-4.3,3.5-7.8,7.8-7.8h7.2c4.3,0,7.8,3.5,7.8,7.8v24.9
	C187.8,216.5,184.3,220,180,220z"/>
<circle class="st2" cx="241.8" cy="201.7" r="50"/>
<path class="st3" d="M205.7,185.6c12.1-16.2,27.2-10.1,33,0"/>
<path class="st3" d="M244.9,185.6c12.1-16.2,27.2-10.1,33,0"/>
<path class="st4" d="M216.9,217.7c0.4,0.5,24.8,38.6,49.7-0.3"/>
<circle class="st2" cx="341.8" cy="201.7" r="50"/>
<path class="st3" d="M305.7,185.6c12.1-16.2,27.2-10.1,33,0"/>
<path class="st3" d="M344.9,185.6c12.1-16.2,27.2-10.1,33,0"/>
<path class="st4" d="M316.9,217.7c0.4,0.5,24.8,38.6,49.7-0.3"/>
<path class="st5" d="M184.8,232.3L184.8,232.3c-3.9,0-7-3.2-7-7v-51.9c0-3.9,3.2-7,7-7h0c3.9,0,7,3.2,7,7v51.9
	C191.8,229.2,188.6,232.3,184.8,232.3z"/>
<path class="st6" d="M167.5,209.8L167.5,209.8c-0.4,0-0.8-0.3-0.8-0.8v-21.2c0-0.4,0.3-0.8,0.8-0.8l0,0c0.4,0,0.8,0.3,0.8,0.8V209
	C168.2,209.4,167.9,209.8,167.5,209.8z"/>
<path class="st0" d="M414.3,212.5h2.2c5.9,0,10.8-4.8,10.8-10.7v-4.9c0-5.9-4.8-10.7-10.8-10.7h-2.2V212.5z"/>
<path class="st1" d="M403.6,220h7.2c4.3,0,7.8-3.5,7.8-7.8v-24.9c0-4.3-3.5-7.8-7.8-7.8h-7.2c-4.3,0-7.8,3.5-7.8,7.8v24.9
	C395.8,216.5,399.3,220,403.6,220z"/>
<path class="st5" d="M398.8,232.3L398.8,232.3c3.9,0,7-3.2,7-7v-51.9c0-3.9-3.2-7-7-7l0,0c-3.9,0-7,3.2-7,7v51.9
	C391.8,229.1,394.9,232.3,398.8,232.3z"/>
<path class="st6" d="M416.1,209.7L416.1,209.7c0.4,0,0.8-0.3,0.8-0.8v-21.2c0-0.4-0.3-0.8-0.8-0.8l0,0c-0.4,0-0.8,0.3-0.8,0.8V209
	C415.3,209.4,415.7,209.7,416.1,209.7z"/>
<path class="st7" d="M423.5,202.5c0-77.1-24.7-132-131.5-132c-104.2,0-131.5,54.9-131.5,132"/>
</svg>
